<?xml version="1.0" encoding="UTF-8"?>
<svg id="Layer_1" data-name="Layer 1" xmlns="http://www.w3.org/2000/svg" viewBox="0 0 1920 360">
  <defs>
    <style>
      .cls-1 {
        fill: #F8F4F1;
      }
    </style>
  </defs>
  <g>
    <path class="cls-1" d="m193.19,229.03c-4.14,15.51-7.4,31.72-9.78,48.64-33.75-1.06-57.77-1.59-72.04-1.59s-37.81.53-71.12,1.59c-1.41,0-2.11-1.24-2.11-3.7,0-2.2.7-3.39,2.11-3.57,10.66-1.23,17.91-3.22,21.75-5.95,3.83-2.73,5.75-8.2,5.75-16.4v-124.49c0-6.17-.77-10.52-2.31-13.03-1.54-2.51-4.25-4.5-8.13-5.95-3.88-1.45-9.56-2.62-17.05-3.51-1.41,0-2.11-1.21-2.11-3.64s.7-3.64,2.11-3.64c5.9,0,12.95.26,21.15.79,7.84.53,14.45.79,19.83.79s11.94-.26,19.7-.79c8.11-.53,15.11-.79,21.02-.79,1.41,0,2.11,1.21,2.11,3.64s-.71,3.64-2.11,3.64c-7.4.88-13.04,2.05-16.92,3.51-3.88,1.45-6.57,3.42-8.06,5.89-1.5,2.47-2.25,6.83-2.25,13.1v128.45c0,10.41,5.11,15.61,15.33,15.61h26.17c10.84,0,20-2.89,27.49-8.66,7.49-5.77,14.89-16.54,22.21-32.32.35-.7,1.19-1.06,2.51-1.06,1.14,0,2.22.35,3.24,1.06,1.01.71,1.52,1.5,1.52,2.38Z"/>
    <path class="cls-1" d="m326.56,221.36c0,17.54-5.71,31.97-17.14,43.29-11.43,11.33-26.22,16.99-44.4,16.99s-33-5.68-44.46-17.05c-11.47-11.37-17.2-25.78-17.2-43.23s5.78-32.45,17.33-44.22c11.56-11.76,26.33-17.65,44.33-17.65s32.86,5.86,44.33,17.58c11.47,11.72,17.2,26.48,17.2,44.28Zm-26.7-.26c0-16.13-3.11-29.02-9.32-38.66-6.21-9.65-14.74-14.47-25.58-14.47s-19.26,4.85-25.51,14.54c-6.26,9.69-9.39,22.56-9.39,38.6s3.08,28.62,9.25,38c6.17,9.39,14.72,14.08,25.65,14.08s19.47-4.65,25.64-13.94c6.17-9.3,9.25-22.01,9.25-38.14Z"/>
    <path class="cls-1" d="m463.9,167.36c0,2.25-.71,3.46-2.11,3.64-7.4.8-12.36,2.57-14.87,5.32-2.51,2.75-5.66,8.42-9.45,17.02l-37.94,86.45c-.62,1.41-1.68,2.11-3.17,2.11-1.59,0-2.69-.71-3.3-2.11l-35.56-86.45c-3.26-8.11-6.57-13.66-9.91-16.66-3.35-2.99-7.89-4.89-13.61-5.68-1.41-.18-2.12-1.37-2.12-3.57,0-2.47.68-3.7,2.05-3.7,3.51,0,7.86.26,13.08.79,5.64.53,10.51.79,14.62.79s9.27-.26,15.25-.79c5.39-.53,9.89-.79,13.51-.79,1.41,0,2.11,1.23,2.11,3.7,0,2.2-.71,3.39-2.11,3.57-5.29.71-8.92,1.65-10.91,2.84s-2.98,2.93-2.98,5.22c0,2.73,1.28,7.45,3.84,14.14l21.39,52.02,21.94-51.89c2.76-6.61,4.15-11.37,4.15-14.28,0-2.29-1.02-4.03-3.07-5.22s-5.58-2.14-10.6-2.84c-1.41-.18-2.11-1.37-2.11-3.57,0-2.47.7-3.7,2.11-3.7,3.7,0,7.89.26,12.56.79,4.52.53,8.58.79,12.17.79,1.84,0,4.84-.22,8.99-.66,5.72-.62,10.33-.93,13.83-.93,1.48,0,2.21,1.21,2.21,3.64Z"/>
    <path class="cls-1" d="m572.69,202.59c0,2.47-1.59,3.7-4.76,3.7h-72.44c-.53,4.76-.79,9.7-.79,14.81,0,14.19,3.37,25.09,10.11,32.72,6.74,7.62,16.33,11.43,28.75,11.43,6.26,0,12.56-1.67,18.9-5.02,6.35-3.35,11.45-7.62,15.33-12.82l.66-.26c.79,0,1.56.48,2.31,1.45.75.97,1.12,2.12,1.12,3.44,0,1.85-2.82,5.71-8.46,11.57-5.64,5.86-11.76,10.33-18.37,13.42-6.61,3.08-13.53,4.63-20.75,4.63-15.86,0-29.21-5.82-40.05-17.45-10.84-11.63-16.26-25.91-16.26-42.83s5.31-31.9,15.93-43.89c10.62-11.98,24.08-17.98,40.38-17.98,13.66,0,25.14,4.47,34.43,13.42,9.3,8.95,13.95,18.84,13.95,29.68Zm-24.06-11.63c0-6.61-2.27-12.1-6.81-16.46-4.54-4.36-10.38-6.54-17.51-6.54s-12.67,2.84-17.65,8.53-8.35,13.15-10.11,22.4l36.75-1.06c5.55-.09,9.49-.62,11.83-1.59,2.33-.97,3.5-2.73,3.5-5.29Z"/>
    <path class="cls-1" d="m841.55,97.44c0,.95-.31,1.8-.93,2.53-.62.73-1.28,1.1-1.98,1.1-8.72.97-15.31,2.79-19.76,5.45-4.45,2.66-9.72,8.42-15.8,17.28l-49.44,71.12v53.14c0,5.99.51,10.22,1.52,12.69,1.01,2.47,3.35,4.47,7.01,6.01,3.66,1.54,9.23,2.76,16.72,3.64,1.41.18,2.11,1.37,2.11,3.57,0,2.47-.71,3.7-2.11,3.7-5.91,0-12.56-.26-19.96-.79-7.16-.53-13.43-.79-18.84-.79s-11.86.26-19.63.79c-8.2.53-15.25.79-21.15.79-1.41,0-2.11-1.24-2.11-3.7,0-2.2.7-3.39,2.11-3.57,10.66-1.23,17.91-3.22,21.75-5.95,3.83-2.73,5.75-8.2,5.75-16.39v-52.61l-45.74-71.78c-6.26-8.87-11.76-14.62-16.52-17.29-4.76-2.66-11.15-4.43-19.17-5.32-1.41,0-2.11-1.21-2.11-3.64s.7-3.64,2.11-3.64c4.14,0,9.77.26,16.9.79,7.74.53,13.99.79,18.74.79,4.49,0,10.69-.26,18.61-.79,9.24-.53,16.95-.79,23.12-.79,1.41,0,2.11,1.21,2.11,3.64s-.71,3.64-2.11,3.64c-11.45,1.6-17.18,4.62-17.18,9.07,0,3.56,1.8,8.13,5.41,13.73l38.26,59.56,39.94-59.77c2.82-4.16,4.23-7.79,4.23-10.9,0-3.37-1.57-5.91-4.7-7.64-3.13-1.73-8.44-3.08-15.93-4.05-1.06,0-1.59-1.21-1.59-3.64s.7-3.64,2.11-3.64c5.2,0,11.54.26,19.04.79,7.32.53,13.4.79,18.25.79,4.49,0,9.26-.26,14.28-.79,5.11-.53,9.96-.79,14.55-.79,1.41,0,2.11,1.21,2.11,3.64Z"/>
    <path class="cls-1" d="m924.04,221.36c0,17.54-5.71,31.97-17.14,43.29-11.43,11.33-26.22,16.99-44.4,16.99s-33-5.68-44.46-17.05c-11.47-11.37-17.2-25.78-17.2-43.23s5.78-32.45,17.33-44.22c11.56-11.76,26.33-17.65,44.33-17.65s32.86,5.86,44.33,17.58c11.47,11.72,17.2,26.48,17.2,44.28Zm-26.7-.26c0-16.13-3.11-29.02-9.32-38.66-6.21-9.65-14.74-14.47-25.58-14.47s-19.26,4.85-25.51,14.54c-6.26,9.69-9.39,22.56-9.39,38.6s3.08,28.62,9.25,38c6.17,9.39,14.72,14.08,25.65,14.08s19.47-4.65,25.64-13.94c6.17-9.3,9.25-22.01,9.25-38.14Z"/>
    <path class="cls-1" d="m1068.65,269.02c0,1.89-.71,2.92-2.11,3.1-16.04,1.74-27.01,4.79-32.91,9.14-1.23.96-2.47,1.44-3.7,1.44-1.76,0-2.64-.71-2.64-2.12l1.06-16.65c-13.04,11.81-24.85,17.71-35.43,17.71-12.07,0-21.48-3.42-28.22-10.26-6.74-6.84-10.11-16.13-10.11-27.86v-49.5c0-7.85-1.01-13.06-3.04-15.62-2.03-2.56-6.04-3.84-12.03-3.84-1.15,0-2.42.05-3.83.13-1.32,0-1.98-1.13-1.98-3.38,0-2.77.7-4.16,2.11-4.16,10.19,0,23.55-1.98,40.06-5.95,1.58,0,2.37,1.1,2.37,3.3v72.7c0,9.96,1.9,17.21,5.7,21.75,3.8,4.54,9.76,6.81,17.89,6.81,5.21,0,9.81-.97,13.78-2.91,3.98-1.94,8.22-5.38,12.73-10.33v-58.51c0-7.77-1.04-12.95-3.11-15.55-2.07-2.6-6.19-3.91-12.36-3.91-1.06,0-2.29.05-3.7.13-1.32,0-1.98-1.13-1.98-3.38,0-2.77.7-4.16,2.11-4.16,10.22,0,23.62-1.98,40.18-5.95,1.59,0,2.38,1.1,2.38,3.3v84.34c0,6.08.86,10.16,2.58,12.23,1.72,2.07,5.75,3.55,12.1,4.43,1.41,0,2.11,1.17,2.11,3.51Z"/>
    <path class="cls-1" d="m1169.9,172.72c0,3.53-1.08,6.52-3.24,8.99-2.16,2.47-4.78,3.7-7.87,3.7-3.88,0-7.71-1.28-11.5-3.83-3-2.03-5.6-3.04-7.8-3.04-5.73,0-11.63,3.35-17.71,10.05v59.48c0,7.67,1.32,13.02,3.97,16.06,2.64,3.04,8.28,5.13,16.92,6.28,1.41.18,2.12,1.37,2.12,3.57,0,2.47-.71,3.7-2.12,3.7-3.61,0-8.72-.26-15.33-.79-7.29-.53-13.09-.79-17.38-.79s-9.69.26-15.93.79c-5.64.53-10.27.79-13.88.79-1.41,0-2.12-1.24-2.12-3.7,0-2.2.71-3.39,2.12-3.57,7.67-.97,12.58-2.77,14.74-5.41,2.16-2.64,3.24-8.27,3.24-16.9v-48.84c0-7.04-.9-11.66-2.71-13.86-1.81-2.2-5.84-3.65-12.1-4.36-1.41,0-2.11-1.17-2.11-3.51,0-2.16.7-3.24,2.11-3.24,8.72-2.2,15.91-4.65,21.57-7.34,5.66-2.69,9.36-5,11.12-6.94,1.05-1.06,2.1-1.59,3.16-1.59,2.45,0,3.68.71,3.68,2.11l-1.06,16.66c7.05-6.52,13.11-11.1,18.18-13.75s10.11-3.97,15.14-3.97c4.05,0,7.54,1.32,10.44,3.97,2.91,2.64,4.36,5.73,4.36,9.25Z"/>
    <path class="cls-1" d="m1262.43,243.57c0,10.75-4.22,19.78-12.67,27.1-8.45,7.31-18.65,10.97-30.62,10.97-4.22,0-10.73-.93-19.53-2.78-6.6-1.32-11.09-1.98-13.46-1.98-.7-6.17-2.33-15.55-4.88-28.15,0-1.32,1.28-1.98,3.83-1.98,2.11,0,3.39.71,3.83,2.11,2.03,6.52,6.03,12.21,12.03,17.05,5.99,4.85,12.16,7.27,18.51,7.27s11.74-1.8,15.4-5.42c3.66-3.61,5.49-8.68,5.49-15.2,0-4.14-1.52-7.8-4.56-10.97-3.04-3.17-9.63-7.09-19.76-11.76-13.31-6.08-22.1-11.81-26.37-17.18-4.28-5.37-6.41-11.81-6.41-19.3,0-9.25,4.01-17.2,12.03-23.86,8.02-6.65,17.49-9.98,28.42-9.98,4.58,0,11.01.79,19.3,2.38,4.58.88,7.58,1.32,8.99,1.32.26,10.4.84,19.26,1.72,26.57,0,1.32-1.28,1.98-3.83,1.98-2.2,0-3.44-.7-3.7-2.11-.97-6.43-3.38-11.65-7.25-15.66-3.87-4.01-8.48-6.01-13.84-6.01-13.7,0-20.55,5.99-20.55,17.98,0,4.05,1.62,7.8,4.87,11.24,3.24,3.44,10.31,7.89,21.18,13.35,12.98,6.52,21.54,12.16,25.66,16.92,4.12,4.76,6.19,10.13,6.19,16.13Z"/>
    <path class="cls-1" d="m1384.83,202.59c0,2.47-1.59,3.7-4.76,3.7h-72.44c-.53,4.76-.79,9.7-.79,14.81,0,14.19,3.37,25.09,10.11,32.72,6.74,7.62,16.33,11.43,28.75,11.43,6.26,0,12.56-1.67,18.9-5.02,6.35-3.35,11.45-7.62,15.33-12.82l.66-.26c.79,0,1.56.48,2.31,1.45.75.97,1.12,2.12,1.12,3.44,0,1.85-2.82,5.71-8.46,11.57-5.64,5.86-11.76,10.33-18.37,13.42-6.61,3.08-13.53,4.63-20.75,4.63-15.86,0-29.21-5.82-40.05-17.45-10.84-11.63-16.26-25.91-16.26-42.83s5.31-31.9,15.93-43.89c10.62-11.98,24.08-17.98,40.38-17.98,13.66,0,25.14,4.47,34.43,13.42,9.3,8.95,13.95,18.84,13.95,29.68Zm-24.06-11.63c0-6.61-2.27-12.1-6.81-16.46-4.54-4.36-10.38-6.54-17.51-6.54s-12.67,2.84-17.65,8.53c-4.98,5.68-8.35,13.15-10.11,22.4l36.75-1.06c5.55-.09,9.49-.62,11.83-1.59,2.33-.97,3.5-2.73,3.5-5.29Z"/>
    <path class="cls-1" d="m1462.02,273.71c0,2.47-.71,3.7-2.11,3.7-3.61,0-8.24-.22-13.88-.66-6.35-.44-11.68-.66-16-.66s-9.47.22-15.73.66c-5.64.44-10.27.66-13.88.66-1.41,0-2.11-1.23-2.11-3.7,0-2.2.7-3.39,2.11-3.57,7.49-.88,12.36-2.66,14.61-5.35,2.25-2.69,3.37-8.34,3.37-16.97v-122.7c0-7.13-.88-11.8-2.64-14-1.76-2.2-5.82-3.65-12.16-4.36-1.41-.18-2.12-1.3-2.12-3.37s.71-3.24,2.12-3.24c9.25-2.38,16.83-4.91,22.74-7.6,5.9-2.69,9.6-4.96,11.1-6.81.88-.97,1.85-1.45,2.91-1.45,2.47,0,3.7.71,3.7,2.11-1.41,19.74-2.11,35.07-2.11,46v115.4c0,8.64,1.1,14.3,3.3,16.99,2.2,2.69,7.09,4.47,14.67,5.35,1.41.18,2.11,1.37,2.11,3.57Z"/>
    <path class="cls-1" d="m1577.16,98.03c0,3.61-1.37,6.46-4.1,8.53-2.73,2.07-6.48,3.11-11.24,3.11-4.23,0-8.51-1.63-12.82-4.89-3.61-2.73-6.83-4.1-9.65-4.1-5.99,0-11.1,3.33-15.33,9.98-4.23,6.66-6.35,15.66-6.35,27.03v30.8h29.61c2.12,0,3.17,2.38,3.17,7.14s-1.06,7.14-3.17,7.14l-29.87-1.06v66.36c0,8.64,1.06,14.28,3.17,16.92,2.11,2.64,6.96,4.45,14.54,5.42,1.41.18,2.11,1.37,2.11,3.57,0,2.47-.71,3.7-2.11,3.7-3.61,0-8.2-.26-13.75-.79-6.24-.53-11.5-.79-15.8-.79s-9.65.26-15.8.79c-5.55.53-10.13.79-13.75.79-1.41,0-2.12-1.24-2.12-3.7,0-2.2.7-3.39,2.12-3.57,7.49-.97,12.31-2.78,14.47-5.42,2.16-2.64,3.24-8.28,3.24-16.92v-63.19c0-2.47-1.06-3.7-3.17-3.7h-13.48c-1.76,0-2.64-1.12-2.64-3.37s.79-3.55,2.38-3.9c11.28-2.56,16.92-5.03,16.92-7.41,0-21.36,6.49-40.18,19.47-56.46,12.98-16.28,27.96-24.43,44.94-24.43,5.89,0,10.54,1.1,13.92,3.3,3.39,2.2,5.08,5.24,5.08,9.12Z"/>
  </g>
  <g>
    <path class="cls-1" d="m1764.88,302.89c-13.18,0-26.57-2.15-39.71-6.68-63.71-21.95-97.68-91.64-75.73-155.35,21.95-63.71,91.64-97.68,155.35-75.73,30.86,10.63,55.73,32.65,70.04,61.99,14.3,29.34,16.32,62.5,5.69,93.36-17.42,50.57-64.93,82.4-115.64,82.4Zm.2-233.64c-46.24,0-89.55,29.02-105.44,75.13-20.01,58.09,10.96,121.63,69.04,141.64,11.98,4.13,24.19,6.09,36.2,6.09,46.24,0,89.55-29.02,105.44-75.13h0c9.7-28.14,7.85-58.37-5.19-85.12-13.04-26.75-35.72-46.83-63.86-56.52-11.98-4.13-24.19-6.09-36.2-6.09Z"/>
    <g>
      <path class="cls-1" d="m1733.82,272.02c.67.23,1.33.45,2,.66-5.88-6.9-12.94-17.84-13.87-31.38-.64-9.36,1.72-19.01,6.84-27.91,7.32-12.73,19.96-22.99,33.81-27.45,3.87-1.25,7.81-2.3,11.62-3.33,11.25-3.02,21.88-5.88,29.98-13.11.99-.88,1.92-1.81,2.83-2.76.08-.1.17-.19.25-.29,1.34-1.55,2.71-3.14,4.01-4.77,5.72-7.75,9.2-16.98,9.78-26.44.32-5.09-.22-10.23-1.51-15.2-1.22,3.94-2.94,7.75-5.04,11.25-6.69,11.19-16.98,20.47-28.96,26.12-12,5.66-25.02,7.58-37.6,9.43-13.2,1.94-25.67,3.78-36.45,9.64-15.47,8.41-25.1,24.9-26.28,41.54-.52,7.3.5,15.14,4.18,21.54,6,10.44,16.98,18.73,27.25,24.66,5.45,3.14,11.19,5.75,17.14,7.8Z"/>
      <path class="cls-1" d="m1826.94,103.4c5.22,10.09,7.74,21.45,7.04,32.65-.07,1.15-.18,2.29-.32,3.43-.06,9.18-3.86,19.22-10.76,28.34-.46.61-.93,1.21-1.4,1.79-.9,1.21-1.86,2.39-2.85,3.54-2.08,2.56-4.09,4.9-6.03,7.06-2.88,3.7-5.17,7.46-6.25,12.18-1.78,7.71.36,15.84,5.32,20.22,4.86,4.29,12.82,5.5,20.26,3.07,15.38-5.02,25.06-19.73,28.76-34.83,4.45-18.14-2.37-37.15-11.86-52.57-5.82-9.46-13.25-17.92-21.9-24.89Z"/>
      <path class="cls-1" d="m1780.09,194.4c-.84.23-1.67.45-2.51.68-3.83,1.03-7.45,2-11.01,3.15-10.88,3.51-20.82,11.58-26.58,21.6-3.78,6.57-5.61,13.88-5.15,20.59.7,10.2,6.4,18.77,11.05,24.17,3.62,4.2,8.01,7.4,13.21,9.39,8.57,3.28,16.77,3.26,25.64,1.48,4.34-.87,8.61-2.03,12.79-3.48,1.21-.42,2.41-.86,3.6-1.33.58-.22,1.15-.45,1.72-.69.45-.19,1.23-.72,1.71-.72-.22,0-.44.02-.65.02-6.52,0-12.89-1.26-18.85-3.84-10.67-4.62-18.72-13.69-21.52-24.28-2.47-9.33-.96-19.93,4.25-29.85,3.62-6.89,7.73-12.06,12.31-16.86Z"/>
      <path class="cls-1" d="m1835.95,227.96c-3.9,1.27-7.87,1.89-11.75,1.89-7.94,0-15.45-2.61-21.06-7.56-6.16-5.44-9.77-13.66-10.24-22.47-5.44,5.31-9.95,10.33-13.69,17.45-3.71,7.05-4.84,14.35-3.2,20.54,1.77,6.69,7.2,12.72,14.17,15.74,13.75,5.94,30.82,2.21,45.68-9.99,6.38-5.24,11.72-11.17,15.9-17.64,1.94-3.61,3.67-7.37,5.17-11.29-5.72,5.93-12.72,10.63-20.98,13.32Z"/>
      <path class="cls-1" d="m1755.38,129.73l-2.98.95c-9.93,3.14-20.21,6.39-28.68,11.92-7.94,5.19-15.63,13.11-22.23,22.91-.77,1.15-1.52,2.31-2.24,3.49,1.97-1.41,4.01-2.71,6.12-3.86,12.79-6.96,27-9.05,40.74-11.07,12.19-1.79,23.7-3.49,33.97-8.33,9.69-4.57,18-12.06,23.39-21.07,5.68-9.49,8.78-23.39-1.18-31.29-.12-.1-.24-.18-.36-.28-5.49-4.05-11.65-6.68-17.38-8.4,3.35,4.37,5.22,9.62,5.14,14.76-.12,7.27-3.96,14.43-10.55,19.65-5.52,4.37-11.91,6.72-17.47,8.59-2.09.7-4.18,1.37-6.28,2.04Z"/>
      <path class="cls-1" d="m1672.73,209.94c1.56-18.48,7.71-36.31,18.04-51.64,5.27-7.83,14.04-18.78,25.88-26.51,9.96-6.51,21.09-10.02,31.86-13.43l2.96-.94c2.04-.65,4.07-1.3,6.1-1.98,4.53-1.52,9.68-3.39,13.56-6.47,3.49-2.76,5.6-6.4,5.65-9.73.05-2.97-1.61-6.3-4.34-8.69-8.1-7.1-21.45-5.77-30.79-4.15-26.36,4.58-48.6,22.48-61.43,45.64-2.77,5.01-5.11,10.26-6.97,15.68-7.03,20.4-7.14,42.05-.51,62.2Z"/>
    </g>
  </g>
</svg>
