<?xml version="1.0" encoding="UTF-8"?>
<svg id="Layer_1" data-name="Layer 1" xmlns="http://www.w3.org/2000/svg" viewBox="0 0 1080 1080">
  <defs>
    <style>
      .cls-1 {
        fill: #F8F4F1;
      }
    </style>
  </defs>
  <path class="cls-1" d="m539.46,1041.91c-54.11,0-109.11-8.82-163.07-27.42C114.75,924.34-24.76,638.14,65.39,376.5,155.55,114.86,441.75-24.65,703.39,65.5c126.74,43.67,228.89,134.09,287.63,254.59,58.74,120.5,67.04,256.66,23.36,383.41-71.56,207.68-266.65,338.41-474.93,338.41Zm.82-959.54c-189.91,0-367.77,119.19-433.02,308.55-82.2,238.55,45,499.5,283.56,581.7,49.18,16.95,99.36,24.99,148.68,25,189.91.02,367.77-119.19,433.02-308.55h0c39.82-115.56,32.25-239.71-21.3-349.58-53.56-109.87-146.69-192.31-262.25-232.12-49.18-16.95-99.36-25-148.68-25Z"/>
  <g>
    <path class="cls-1" d="m411.93,915.14c2.73.94,5.47,1.83,8.21,2.71-24.15-28.34-53.13-73.29-56.95-128.87-2.64-38.44,7.07-78.08,28.08-114.61,30.05-52.26,81.96-94.41,138.87-112.74,15.87-5.11,32.07-9.46,47.73-13.67,46.22-12.41,89.88-24.13,123.13-53.85,4.05-3.62,7.9-7.42,11.63-11.32.34-.4.69-.8,1.03-1.2,5.49-6.36,11.12-12.89,16.49-19.58,23.5-31.84,37.77-69.74,40.18-108.57,1.3-20.92-.91-42.02-6.2-62.44-5.02,16.16-12.08,31.81-20.69,46.2-27.48,45.95-69.72,84.05-118.94,107.27-49.3,23.26-102.74,31.13-154.42,38.73-54.21,7.97-105.42,15.51-149.68,39.58-63.53,34.55-103.09,102.28-107.93,170.58-2.13,29.99,2.05,62.17,17.17,88.46,24.66,42.9,69.75,76.94,111.92,101.27,22.36,12.9,45.97,23.62,70.38,32.03Z"/>
    <path class="cls-1" d="m794.34,222.63c21.45,41.45,31.77,88.07,28.92,134.09-.29,4.7-.75,9.39-1.32,14.07-.23,37.7-15.84,78.95-44.18,116.41-1.9,2.51-3.82,4.96-5.74,7.37-3.71,4.98-7.62,9.82-11.69,14.54-8.53,10.5-16.78,20.12-24.76,29-11.82,15.18-21.22,30.64-25.68,50.01-7.31,31.68,1.46,65.05,21.83,83.04,19.97,17.64,52.63,22.59,83.19,12.62,63.15-20.61,102.92-81.01,118.13-143.05,18.26-74.48-9.74-152.55-48.73-215.89-23.92-38.85-54.43-73.58-89.96-102.21Z"/>
    <path class="cls-1" d="m601.93,596.39c-3.44.93-6.88,1.86-10.3,2.78-15.73,4.23-30.59,8.21-45.22,12.93-44.7,14.4-85.51,47.56-109.16,88.71-15.53,27-23.04,57.02-21.15,84.54,2.88,41.9,26.27,77.11,45.37,99.26,14.88,17.26,32.9,30.41,54.26,38.57,35.21,13.45,68.86,13.38,105.3,6.07,17.81-3.57,35.38-8.36,52.54-14.3,4.97-1.72,9.9-3.53,14.79-5.44,2.36-.92,4.72-1.87,7.06-2.83,1.86-.77,5.03-2.94,7-2.96-.89.01-1.79.07-2.68.07-26.79,0-52.94-5.19-77.44-15.78-43.83-18.96-76.88-56.23-88.39-99.72-10.15-38.32-3.94-81.86,17.47-122.61,14.86-28.28,31.76-49.54,50.54-69.26Z"/>
    <path class="cls-1" d="m831.35,734.19c-16.01,5.22-32.33,7.78-48.24,7.78-32.59,0-63.46-10.71-86.51-31.06-25.3-22.34-40.12-56.1-42.04-92.27-22.35,21.79-40.86,42.43-56.23,71.68-15.22,28.96-19.89,58.92-13.15,84.36,7.28,27.49,29.57,52.25,58.18,64.62,56.45,24.4,126.57,9.07,187.61-41.02,26.21-21.51,48.13-45.88,65.32-72.44,7.96-14.82,15.07-30.29,21.24-46.37-23.48,24.35-52.26,43.64-86.17,54.71Z"/>
    <path class="cls-1" d="m500.46,330.77l-12.26,3.89c-40.8,12.89-82.99,26.23-117.8,48.97-32.6,21.3-64.17,53.84-91.3,94.11-3.17,4.71-6.23,9.48-9.19,14.32,8.09-5.79,16.46-11.13,25.15-15.85,52.55-28.58,110.88-37.16,167.29-45.46,50.06-7.36,97.34-14.32,139.52-34.22,39.8-18.78,73.91-49.51,96.05-86.53,23.32-38.99,36.04-96.05-4.83-128.51-.51-.4-.97-.75-1.47-1.15-22.54-16.63-47.86-27.43-71.39-34.48,13.76,17.95,21.44,39.51,21.1,60.61-.48,29.86-16.27,59.26-43.32,80.68-22.66,17.94-48.93,27.61-71.77,35.27-8.57,2.87-17.18,5.62-25.79,8.37Z"/>
    <path class="cls-1" d="m161.03,660.19c6.41-75.88,31.67-149.1,74.1-212.08,21.65-32.14,57.67-77.12,106.28-108.88,40.9-26.72,86.62-41.17,130.83-55.14l12.14-3.85c8.37-2.66,16.72-5.33,25.04-8.12,18.59-6.23,39.75-13.93,55.7-26.56,14.32-11.34,23-26.28,23.22-39.96.2-12.21-6.63-25.89-17.82-35.69-33.28-29.17-88.09-23.69-126.44-17.02-108.27,18.81-199.6,92.32-252.29,187.45-11.4,20.57-20.97,42.15-28.63,64.39-28.87,83.78-29.32,172.7-2.11,255.46Z"/>
  </g>
</svg>
